<svg xmlns="http://www.w3.org/2000/svg" xmlns:xlink="http://www.w3.org/1999/xlink" width="512" zoomAndPan="magnify" viewBox="0 0 384 383.999986" height="512" preserveAspectRatio="xMidYMid meet" version="1.0"><defs><g/><clipPath id="e8e19dda6b"><path d="M 80 32.597656 L 211.488281 32.597656 L 211.488281 206.609375 L 80 206.609375 Z M 80 32.597656 " clip-rule="nonzero"/></clipPath><clipPath id="6dd4f47488"><path d="M 131 17 L 163 17 L 163 70 L 131 70 Z M 131 17 " clip-rule="nonzero"/></clipPath><clipPath id="9690c08bf8"><path d="M 161.257812 17.527344 L 163.070312 68.519531 L 132.996094 69.589844 L 131.183594 18.59375 Z M 161.257812 17.527344 " clip-rule="nonzero"/></clipPath><clipPath id="739c03e428"><path d="M 160.660156 0.699219 L 163.585938 83.070312 L 121.746094 84.558594 L 118.816406 2.183594 Z M 160.660156 0.699219 " clip-rule="nonzero"/></clipPath><clipPath id="3598da03dd"><path d="M 160.769531 0.582031 L 163.71875 83.46875 L 122.273438 84.945312 L 119.324219 2.054688 Z M 160.769531 0.582031 " clip-rule="nonzero"/></clipPath><clipPath id="bc716563d7"><path d="M 94 17 L 127 17 L 127 70 L 94 70 Z M 94 17 " clip-rule="nonzero"/></clipPath><clipPath id="c14054b661"><path d="M 124.34375 17.527344 L 126.15625 68.519531 L 96.082031 69.589844 L 94.269531 18.59375 Z M 124.34375 17.527344 " clip-rule="nonzero"/></clipPath><clipPath id="ca5da1f318"><path d="M 1 0.398438 L 32.28125 0.398438 L 32.28125 52.71875 L 1 52.71875 Z M 1 0.398438 " clip-rule="nonzero"/></clipPath><clipPath id="0f8ff1681d"><path d="M 30.34375 0.527344 L 32.15625 51.519531 L 2.082031 52.589844 L 0.269531 1.59375 Z M 30.34375 0.527344 " clip-rule="nonzero"/></clipPath><clipPath id="d88105f862"><path d="M 2.613281 68.601562 L -0.316406 -13.769531 L 41.523438 -15.257812 L 44.453125 67.117188 Z M 2.613281 68.601562 " clip-rule="nonzero"/></clipPath><clipPath id="c72a39e14d"><path d="M 2.5 68.71875 L -0.445312 -14.171875 L 41 -15.644531 L 43.945312 67.246094 Z M 2.5 68.71875 " clip-rule="nonzero"/></clipPath><clipPath id="2d8b3c924e"><rect x="0" width="33" y="0" height="53"/></clipPath><clipPath id="6f3314d9f3"><path d="M 104.179688 19.828125 L 155.203125 19.828125 L 155.203125 45.359375 L 104.179688 45.359375 Z M 104.179688 19.828125 " clip-rule="nonzero"/></clipPath><clipPath id="37a8bb03b6"><path d="M 0.519531 195 L 295.480469 195 L 295.480469 310.679688 L 0.519531 310.679688 Z M 0.519531 195 " clip-rule="nonzero"/></clipPath><clipPath id="fe34e72973"><rect x="0" width="296" y="0" height="116"/></clipPath><clipPath id="8bac9524a1"><rect x="0" width="296" y="0" height="311"/></clipPath></defs><g transform="matrix(1, 0, 0, 1, 47, 33)"><g clip-path="url(#8bac9524a1)"><g clip-path="url(#e8e19dda6b)"><path fill="#1e888c" d="M 144.753906 122.671875 L 144.753906 87.648438 C 144.753906 83.496094 148.382812 80.113281 152.628906 80.113281 C 156.78125 80.113281 160.410156 83.496094 160.410156 87.648438 L 160.410156 125.792969 C 160.410156 127.824219 161.855469 129.472656 163.886719 129.472656 C 165.917969 129.472656 167.367188 127.824219 167.367188 125.792969 L 167.367188 95.542969 C 168.0625 95.230469 168.09375 94.832031 168.339844 94.359375 C 169.636719 91.835938 172.210938 90.269531 175.132812 90.269531 C 179.289062 90.269531 182.671875 93.648438 182.671875 97.800781 L 182.671875 126.574219 C 182.671875 128.605469 184.292969 130.253906 186.324219 130.253906 C 188.355469 130.253906 189.976562 128.605469 189.976562 126.574219 L 189.976562 106.789062 C 191.019531 104.140625 194.046875 102.519531 197.167969 102.519531 L 197.550781 102.519531 C 201.480469 102.519531 204.933594 105.589844 204.933594 109.515625 L 204.933594 155.808594 C 204.933594 160.449219 204.050781 165.0625 202.558594 169.523438 C 199.542969 178.542969 192.917969 186.675781 184.019531 192.417969 C 173.988281 198.894531 160.566406 200.828125 147.25 197.722656 C 134.101562 194.648438 123.746094 185.859375 114.699219 170.054688 C 114.566406 169.820312 88.988281 125.144531 88.972656 125.117188 C 86.441406 120.785156 87.914062 115.121094 92.257812 112.480469 C 94.367188 111.191406 96.839844 110.8125 99.222656 111.382812 C 101.621094 111.964844 103.652344 113.457031 104.933594 115.566406 L 114.589844 131.644531 C 115.4375 133.0625 116.972656 133.738281 118.5625 133.292969 C 120.160156 132.855469 121.101562 131.402344 121.101562 129.75 L 121.101562 47.859375 C 121.101562 45.703125 122.085938 43.691406 123.582031 42.199219 C 125.046875 40.746094 127.09375 39.929688 129.210938 39.953125 C 133.484375 39.96875 137.101562 43.625 137.101562 48.105469 L 137.101562 120.847656 C 137.101562 121.535156 137.234375 122.179688 137.5625 122.730469 C 137.59375 124.734375 139.144531 126.351562 141.15625 126.351562 C 143.191406 126.351562 144.753906 124.703125 144.753906 122.671875 Z M 129.292969 32.597656 C 125.28125 32.644531 121.464844 34.136719 118.609375 36.984375 C 115.714844 39.871094 114.144531 43.730469 114.144531 47.859375 L 114.144531 116.480469 L 111.269531 111.761719 C 108.953125 107.957031 105.289062 105.28125 100.980469 104.234375 C 96.683594 103.191406 92.222656 103.890625 88.4375 106.195312 C 80.691406 110.90625 78.078125 121.058594 82.601562 128.796875 C 107.972656 173.125 108.304688 173.707031 108.304688 173.707031 C 118.296875 191.164062 130.476562 201.363281 145.550781 204.886719 C 150.257812 205.984375 154.984375 206.527344 159.617188 206.527344 C 169.980469 206.527344 179.859375 203.816406 187.945312 198.597656 C 198.242188 191.949219 205.792969 182.453125 209.335938 171.855469 C 211.078125 166.640625 211.890625 161.242188 211.890625 155.808594 L 211.890625 109.515625 C 211.890625 101.53125 205.535156 94.863281 197.550781 94.863281 L 197.167969 94.863281 C 194.601562 94.863281 192.148438 95.589844 189.980469 96.726562 C 189.46875 88.976562 183 82.875 175.039062 82.875 C 172.183594 82.875 169.472656 83.699219 167.152344 85.148438 C 165.96875 78.113281 159.871094 72.75 152.421875 72.75 C 149.457031 72.75 146.496094 73.636719 144.40625 75.136719 L 144.40625 48.105469 C 144.40625 39.585938 137.609375 32.632812 129.292969 32.597656 " fill-opacity="1" fill-rule="nonzero"/></g><g clip-path="url(#6dd4f47488)"><g clip-path="url(#9690c08bf8)"><g clip-path="url(#739c03e428)"><g clip-path="url(#3598da03dd)"><path fill="#1e888c" d="M 122.269531 84.835938 L 122.175781 82.207031 C 143.515625 81.445312 160.261719 63.464844 159.503906 42.121094 C 158.746094 20.78125 140.765625 4.035156 119.421875 4.792969 L 119.328125 2.160156 C 130.371094 1.769531 140.902344 5.699219 148.988281 13.230469 C 157.074219 20.757812 161.742188 30.988281 162.136719 42.027344 C 162.527344 53.070312 158.597656 63.605469 151.066406 71.691406 C 143.539062 79.773438 133.308594 84.445312 122.269531 84.835938 Z M 122.269531 84.835938 " fill-opacity="1" fill-rule="nonzero"/></g></g></g></g><g clip-path="url(#bc716563d7)"><g clip-path="url(#c14054b661)"><g transform="matrix(1, 0, 0, 1, 94, 17)"><g clip-path="url(#2d8b3c924e)"><g clip-path="url(#ca5da1f318)"><g clip-path="url(#0f8ff1681d)"><g clip-path="url(#d88105f862)"><g clip-path="url(#c72a39e14d)"><path fill="#1e888c" d="M 41.003906 -15.535156 L 41.097656 -12.90625 C 19.753906 -12.144531 3.007812 5.835938 3.765625 27.175781 C 4.523438 48.519531 22.503906 65.265625 43.847656 64.507812 L 43.941406 67.140625 C 32.898438 67.53125 22.367188 63.601562 14.28125 56.070312 C 6.195312 48.539062 1.527344 38.3125 1.132812 27.269531 C 0.742188 16.230469 4.671875 5.695312 12.203125 -2.390625 C 19.734375 -10.476562 29.960938 -15.144531 41.003906 -15.535156 Z M 41.003906 -15.535156 " fill-opacity="1" fill-rule="nonzero"/></g></g></g></g></g></g></g></g><g clip-path="url(#6f3314d9f3)"><path fill="#1e888c" d="M 155.238281 45.359375 L 153.613281 45.359375 C 153.613281 32.175781 142.890625 21.449219 129.707031 21.449219 C 116.523438 21.449219 105.800781 32.175781 105.800781 45.359375 L 104.171875 45.359375 C 104.171875 38.539062 106.828125 32.125 111.652344 27.304688 C 116.476562 22.480469 122.886719 19.824219 129.707031 19.824219 C 136.527344 19.824219 142.9375 22.480469 147.761719 27.304688 C 152.582031 32.125 155.238281 38.539062 155.238281 45.359375 Z M 155.238281 45.359375 " fill-opacity="1" fill-rule="nonzero"/></g><g clip-path="url(#37a8bb03b6)"><g transform="matrix(1, 0, 0, 1, 0, 195)"><g clip-path="url(#fe34e72973)"><g fill="#114664" fill-opacity="1"><g transform="translate(2.012234, 85.965903)"><g><path d="M 1.570312 -55.957031 L 1.570312 -45.582031 L 18.390625 -45.582031 L 18.390625 0 L 30.019531 0 L 30.019531 -45.582031 L 46.761719 -45.582031 L 46.761719 -55.957031 Z M 1.570312 -55.957031 "/></g></g></g><g fill="#114664" fill-opacity="1"><g transform="translate(42.089879, 85.965903)"><g><path d="M 40.628906 0 C 39.453125 -2.042969 39.058594 -4.714844 39.058594 -8.488281 L 39.058594 -26.40625 C 39.058594 -36.386719 33.164062 -41.496094 21.535156 -41.496094 C 10.609375 -41.496094 5.03125 -37.332031 4.242188 -28.449219 L 14.382812 -28.292969 C 14.933594 -32.066406 17.054688 -33.636719 21.613281 -33.636719 C 26.011719 -33.636719 28.449219 -32.222656 28.449219 -29.234375 L 28.449219 -26.25 L 14.304688 -23.417969 C 6.128906 -21.769531 1.964844 -17.605469 1.964844 -11.160156 C 1.964844 -3.773438 7.464844 1.179688 16.03125 1.179688 C 21.375 1.179688 25.777344 -0.785156 28.527344 -4.085938 C 28.765625 -2.671875 29.078125 -1.414062 29.390625 0 Z M 19.175781 -6.996094 C 15.089844 -6.996094 12.808594 -8.960938 12.808594 -11.867188 C 12.808594 -14.539062 14.695312 -16.269531 18.074219 -16.976562 L 28.449219 -19.175781 L 28.449219 -16.191406 C 28.449219 -10.214844 24.441406 -6.996094 19.175781 -6.996094 Z M 19.175781 -6.996094 "/></g></g></g><g fill="#114664" fill-opacity="1"><g transform="translate(86.254475, 85.965903)"><g><path d="M 27.585938 -41.574219 C 21.847656 -41.574219 17.683594 -39.453125 14.933594 -35.285156 L 14.539062 -40.550781 L 4.714844 -40.550781 L 4.714844 16.03125 L 15.796875 16.03125 L 15.796875 -3.773438 C 18.46875 -0.394531 22.242188 1.335938 26.71875 1.335938 C 36.9375 1.335938 44.167969 -7.386719 44.167969 -20.433594 C 44.167969 -33.714844 36.78125 -41.574219 27.585938 -41.574219 Z M 24.363281 -8.410156 C 19.019531 -8.410156 15.246094 -13.125 15.246094 -20.433594 C 15.246094 -27.742188 19.019531 -32.378906 24.363281 -32.378906 C 29.707031 -32.378906 33.480469 -27.820312 33.480469 -20.433594 C 33.480469 -12.96875 29.707031 -8.410156 24.363281 -8.410156 Z M 24.363281 -8.410156 "/></g></g></g><g fill="#1e888c" fill-opacity="1"><g transform="translate(133.32851, 85.965903)"><g><path d="M 20.277344 -9.746094 C 20.828125 -11.789062 22.476562 -13.046875 26.957031 -16.03125 L 34.578125 -21.140625 C 41.886719 -26.011719 46.054688 -32.066406 46.054688 -39.609375 C 46.054688 -50.140625 37.957031 -57.214844 25.777344 -57.214844 C 13.359375 -57.214844 5.894531 -49.824219 5.894531 -37.332031 L 5.894531 -36.308594 L 17.132812 -36.308594 L 17.132812 -37.878906 C 17.132812 -44.480469 20.433594 -47.546875 25.542969 -47.546875 C 30.414062 -47.546875 33.871094 -44.640625 33.871094 -39.058594 C 33.871094 -34.65625 31.671875 -31.90625 27.742188 -29 L 17.054688 -21.140625 C 9.351562 -15.480469 5.265625 -9.746094 5.265625 0 L 46.605469 0 L 46.605469 -9.746094 Z M 20.277344 -9.746094 "/></g></g></g><g fill="#114664" fill-opacity="1"><g transform="translate(185.599631, 85.965903)"><g><path d="M 27.585938 -41.574219 C 22.398438 -41.574219 18.546875 -39.84375 15.796875 -36.464844 L 15.796875 -55.957031 L 4.714844 -55.957031 L 4.714844 0 L 14.539062 0 L 14.933594 -5.03125 C 17.683594 -0.785156 21.691406 1.335938 26.71875 1.335938 C 36.9375 1.335938 44.167969 -7.386719 44.167969 -20.433594 C 44.167969 -33.714844 36.78125 -41.574219 27.585938 -41.574219 Z M 24.363281 -8.410156 C 19.019531 -8.410156 15.246094 -13.125 15.246094 -20.433594 C 15.246094 -27.742188 19.019531 -32.378906 24.363281 -32.378906 C 29.707031 -32.378906 33.480469 -27.820312 33.480469 -20.433594 C 33.480469 -12.96875 29.707031 -8.410156 24.363281 -8.410156 Z M 24.363281 -8.410156 "/></g></g></g><g fill="#114664" fill-opacity="1"><g transform="translate(232.671867, 85.965903)"><g><path d="M 15.875 -45.894531 L 15.875 -55.957031 L 4.792969 -55.957031 L 4.792969 -45.894531 Z M 15.796875 0 L 15.796875 -40.550781 L 4.714844 -40.550781 L 4.714844 0 Z M 15.796875 0 "/></g></g></g><g fill="#114664" fill-opacity="1"><g transform="translate(253.575426, 85.965903)"><g><path d="M 15.796875 0 L 15.796875 -55.957031 L 4.714844 -55.957031 L 4.714844 0 Z M 15.796875 0 "/></g></g></g><g fill="#114664" fill-opacity="1"><g transform="translate(274.478984, 85.965903)"><g><path d="M 15.796875 0 L 15.796875 -55.957031 L 4.714844 -55.957031 L 4.714844 0 Z M 15.796875 0 "/></g></g></g></g></g></g></g></g></svg>